# xmcd
#
# Track frame offsets:
#	150
#	7142
#	24120
#	55500
#	63485
#	71730
#	81954
#	95687
#	110535
#	120092
#	147140
#	158932
#	169587
#	197825
#	208970
#	219915
#	239940
#
# Disc length: 3499 seconds
#
# Revision: 1
# Processed by: cddbd v1.5.1PL2 Copyright (c) Steve Scherf et al.
# Submitted via: audiograbber 1.81.02
#
DISCID=f10da911
DTITLE=Jubilate Chor - Gelobet sei der Herr täglich
DYEAR=2006
DGENRE=Chorus
TTITLE0=Kommt herzu und lasset uns dem Herren frohlocken
TTITLE1=Wunderbarer König
TTITLE2=Lobe den Herren, den mächtigen König der Ehren
TTITLE3=Dein, o Herr, ist die Kraft
TTITLE4=Ich will den Namen Gottes loben
TTITLE5=O Herr, auf dich steht mein Hoffen
TTITLE6=Befiehl dem Herren deine Wege
TTITLE7=Lobe den Herren, o meine Seele
TTITLE8=Gelobet sei der Herr täglich
TTITLE9=Jauchzet Gott, alle Lande
TTITLE10=Du bist reich
TTITLE11=Mein Gott, ich will dich loben
TTITLE12=Wie lieb sind mir deine Wohnungen
TTITLE13=Herr, deine Güte reicht so weit
TTITLE14=Das Hosianna
TTITLE15=Jesu, meine Freude, meines Herzens Weide
TTITLE16=Nun danket alle Gott
EXTD=www.gerth.de - ArtNo. 939324
EXTT0=
EXTT1=
EXTT2=
EXTT3=
EXTT4=
EXTT5=
EXTT6=
EXTT7=
EXTT8=
EXTT9=
EXTT10=
EXTT11=
EXTT12=
EXTT13=
EXTT14=
EXTT15=
EXTT16=
PLAYORDER=
